<svg id="SvgjsSvg1001" width="288" height="288" xmlns="http://www.w3.org/2000/svg" version="1.1" xmlns:xlink="http://www.w3.org/1999/xlink" xmlns:svgjs="http://svgjs.com/svgjs"><defs id="SvgjsDefs1002"></defs><g id="SvgjsG1008" transform="matrix(0.9167,0,0,0.9167,11.995200953292851,12.235103771209737)"><!--?xml version="1.0" encoding="UTF-8"?--><svg xmlns="http://www.w3.org/2000/svg" xmlns:xlink="http://www.w3.org/1999/xlink" viewBox="0 0 50 50" version="1.1" width="288" height="288"><path d="M9.3 14C8 14 7 15 7 16.402c0 .598.2.797.3 1C7.579 17.906 8.86 20 8.86 20c.066.098.078.168.097.3.102.4-.2.7-.598.7H2v3h8.8c1.302 0 2.4-1 2.4-2.402 0-.598-.2-.797-.298-1L11.234 18a.535.535 0 0 1-.101-.3c0-.4.3-.7.699-.7H16v7h4v-7h4v-3zm17 0l-3.222 10h3.223L27 22h3.152l.696 2H34l-3.332-10zm8.7 0v10h3v-3.11c.656.626 2.219 2.11 3 2.81.098.1.398.3.797.3H48v-3h-4.402a.857.857 0 0 1-.52-.16c-.066-.063-.11-.102-.16-.149A3.503 3.503 0 0 0 45 17.5a3.51 3.51 0 0 0-3.5-3.5zm3 3h3c.277 0 .5.223.5.5s-.223.5-.5.5h-3zm-9.434.402L29.574 20H27.7zM2.398 27l3.336 10h2.368l1.57-4.55L11.246 37h2.352l3.336-10H13l-.969 2.902L11.066 27H7.602l-1.055 2.938L5.567 27zm16.903 0l-3.223 10h3.223L20 35h3.152l.696 2H27l-3.332-10zM28 27v10h3v-3.113c.656.62 2.223 2.113 3 2.812.102.102.402.301.8.301h9.298c1.3 0 2.402-.902 2.402-2.402 0-.598-.2-.797-.3-1l-1.669-2.5c-.031-.067-.097-.196-.097-.297 0-.399.296-.801.597-.801H48v-3h-5.7c-1.3 0-2.398 1.102-2.398 2.5 0 .602.196.8.297 1C40.48 30.883 42 33 42 33c.043.102.098.2.098.3 0 .4-.297.7-.598.7h-4.902a.88.88 0 0 1-.418-.102l-.215-.23C37.16 33.109 38 31.902 38 30.5a3.51 3.51 0 0 0-3.5-3.5zm3 3h3c.277 0 .5.223.5.5s-.223.5-.5.5h-3zm-9.434.402L22.574 33H20.7z" id="surface1" fill="#f7bb0c" class="color000 svgShape"></path><metadata><rdf:rdf xmlns:rdf="http://www.w3.org/1999/02/22-rdf-syntax-ns#" xmlns:rdfs="http://www.w3.org/2000/01/rdf-schema#" xmlns:dc="http://purl.org/dc/elements/1.1/"><rdf:description about="https://iconscout.com/legal#licenses" dc:title="star,wars,filled" dc:description="star,wars,filled" dc:publisher="Iconscout" dc:date="2017-12-09" dc:format="image/svg+xml" dc:language="en"><dc:creator><rdf:bag><rdf:li>Icons8</rdf:li></rdf:bag></dc:creator></rdf:description></rdf:rdf></metadata></svg></g></svg>