<svg id="SvgjsSvg1001" width="288" height="288" xmlns="http://www.w3.org/2000/svg" version="1.1" xmlns:xlink="http://www.w3.org/1999/xlink" xmlns:svgjs="http://svgjs.com/svgjs"><defs id="SvgjsDefs1002"></defs><g id="SvgjsG1008" transform="matrix(0.9167,0,0,0.9167,11.995200000000011,11.995200000000011)"><!--?xml version="1.0" encoding="UTF-8"?--><svg xmlns="http://www.w3.org/2000/svg" xmlns:xlink="http://www.w3.org/1999/xlink" viewBox="0 0 32 32" version="1.1" width="288" height="288"><path d="M6.445 9c-.793 0-1.402.598-1.402 1.438 0 .363.121.48.184.601a75.4 75.4 0 0 0 .945 1.559c.043.062.05.101.062.183.063.239-.12.418-.367.418H2V15h5.355c.79 0 1.461-.598 1.461-1.438 0-.363-.12-.48-.183-.601l-1.016-1.559a.365.365 0 0 1-.058-.183c0-.239.183-.418.425-.418H11V15h2v-4.2h2V9zm10.192 0l-1.961 6h1.96l.356-1h2.059l.355 1h1.918l-2.027-6zm5.453 0v6h1.82v-1.867c.402.375 1.356 1.265 1.828 1.687.063.059.242.18.485.18H30v-1.8h-2.676a.547.547 0 0 1-.32-.095c-.04-.039-.067-.062-.098-.09.742-.328 1.094-1.062 1.094-1.917C28 9.945 27.04 9 25.871 9zm1.82 1.8h1.652c.172 0 .31.134.31.298a.306.306 0 0 1-.31.304H23.91zm-5.894.24l.457 1.16h-.848zM2 17l2.031 6h1.242L6 20.605 6.727 23h1.242L10 17H8.07l-.71 2.273L6.593 17H5.406l-.765 2.273L3.93 17zm10.313 0l-1.961 6h1.96l.356-1h2.059l.355 1H17l-2.031-6zM18 17v6h1.828v-1.871c.399.375 1.176 1.27 1.652 1.691.06.059.243.18.485.18h5.574c.79 0 1.461-.54 1.461-1.438 0-.363-.121-.48-.184-.601l-.925-1.5a.427.427 0 0 1-.063-.18c0-.242.18-.48.363-.48H30V17h-3.469c-.793 0-1.46.66-1.46 1.5 0 .36.12.48.183.598.172.23 1.008 1.5 1.008 1.5.027.062.062.12.062.183 0 .239-.183.418-.367.418h-2.895a.53.53 0 0 1-.253-.058c-.055-.059-.098-.102-.137-.141.73-.336 1.328-1.059 1.328-1.902C24 17.945 23.04 17 21.871 17zm1.828 1.8h1.735c.171 0 .308.134.308.298a.306.306 0 0 1-.308.304h-1.735zm-6.137.24l.457 1.16h-.847z" id="surface1" fill="#000000" class="color000 svgShape"></path><metadata><rdf:rdf xmlns:rdf="http://www.w3.org/1999/02/22-rdf-syntax-ns#" xmlns:rdfs="http://www.w3.org/2000/01/rdf-schema#" xmlns:dc="http://purl.org/dc/elements/1.1/"><rdf:description about="https://iconscout.com/legal#licenses" dc:title="star,wars" dc:description="star,wars" dc:publisher="Iconscout" dc:date="2017-12-30" dc:format="image/svg+xml" dc:language="en"><dc:creator><rdf:bag><rdf:li>Icons8</rdf:li></rdf:bag></dc:creator></rdf:description></rdf:rdf></metadata></svg></g></svg>